# xmcd
#
# Track frame offsets: 
#        150
#        22979
#        47729
#        71874
#        98538
#
# Disc length: 1727 seconds
#
# Revision: 0
# Processed by: cddbd v1.5.2PL0 Copyright (c) Steve Scherf et al.
# Submitted via: ExactAudioCopy v1.0b2
#
DISCID=3806bd05
DTITLE=The Big Motif - The Big Motif (EP)
DYEAR=2010
DGENRE=Blues
TTITLE0=The Daily Motion
TTITLE1=Funkadalia
TTITLE2=Colors
TTITLE3=Paper Crane
TTITLE4=Bad Cat
EXTD=
EXTT0=
EXTT1=
EXTT2=
EXTT3=
EXTT4=
PLAYORDER=
